<svg xmlns="http://www.w3.org/2000/svg" width="91.555" height="53.162" viewBox="0 0 91.555 53.162">
  <g id="noun_Arrow_1569918" transform="translate(0 0)">
    <g id="noun_Arrow_2332726">
      <g id="Grupo_1607" data-name="Grupo 1607">
        <path id="Trazado_5052" data-name="Trazado 5052" d="M110.188,1009.925,86.56,984.82a1.516,1.516,0,0,0-2.1-.069,1.553,1.553,0,0,0-.069,2.1l21.274,22.612H20.477a1.477,1.477,0,1,0,0,2.953h85.188l-21.274,22.612a1.543,1.543,0,0,0,.069,2.1,1.5,1.5,0,0,0,2.1-.069l23.628-25.1a1.586,1.586,0,0,0,0-2.031Z" transform="translate(-19 -984.362)" fill="#fff"/>
      </g>
    </g>
  </g>
</svg>
