<svg xmlns="http://www.w3.org/2000/svg" width="116.27" height="119.5" viewBox="0 0 116.27 119.5"><path d="M102.512,11.812H92.825V2.125H86.363v9.687H34.69V2.125H28.228v9.687H18.541A16.165,16.165,0,0,0,2.392,27.961v77.515a16.165,16.165,0,0,0,16.149,16.149h83.971a16.165,16.165,0,0,0,16.149-16.149V27.961A16.169,16.169,0,0,0,102.512,11.812Zm9.693,93.664a9.7,9.7,0,0,1-9.687,9.687H18.541a9.7,9.7,0,0,1-9.687-9.687V44.11H112.2Zm0-67.822H8.848V27.961a9.7,9.7,0,0,1,9.687-9.687h9.687v6.462H34.69V18.274H86.369v6.462h6.462V18.274h9.687a9.7,9.7,0,0,1,9.687,9.687Z" transform="translate(-2.392 -2.125)" fill="#1b7ad7"/><path d="M16.326,35.973H29.244a6.469,6.469,0,0,0,6.462-6.462V16.593a6.469,6.469,0,0,0-6.462-6.462H16.326a6.469,6.469,0,0,0-6.462,6.462V29.511A6.476,6.476,0,0,0,16.326,35.973Zm0-19.38H29.244l.006,12.918H16.326V16.593Z" transform="translate(35.346 38.31)" fill="#1b7ad7"/><path d="M21.664,35.973H34.582a6.469,6.469,0,0,0,6.462-6.462V16.593a6.469,6.469,0,0,0-6.462-6.462H21.664A6.469,6.469,0,0,0,15.2,16.593V29.511A6.476,6.476,0,0,0,21.664,35.973Zm0-19.38H34.582l.006,12.918H21.664Z" transform="translate(62.307 38.31)" fill="#1b7ad7"/><path d="M10.989,41.311H23.907a6.469,6.469,0,0,0,6.462-6.462V21.931a6.469,6.469,0,0,0-6.462-6.462H10.989a6.469,6.469,0,0,0-6.462,6.462V34.849A6.469,6.469,0,0,0,10.989,41.311Zm0-19.38H23.907l.006,12.918H10.989Z" transform="translate(8.391 65.271)" fill="#1b7ad7"/><path d="M16.326,41.311H29.244a6.469,6.469,0,0,0,6.462-6.462V21.931a6.469,6.469,0,0,0-6.462-6.462H16.326a6.469,6.469,0,0,0-6.462,6.462V34.849A6.476,6.476,0,0,0,16.326,41.311Zm0-19.38H29.244l.006,12.918H16.326V21.931Z" transform="translate(35.346 65.271)" fill="#1b7ad7"/><path d="M21.664,41.311H34.582a6.469,6.469,0,0,0,6.462-6.462V21.931a6.469,6.469,0,0,0-6.462-6.462H21.664A6.469,6.469,0,0,0,15.2,21.931V34.849A6.476,6.476,0,0,0,21.664,41.311Zm0-19.38H34.582l.006,12.918H21.664Z" transform="translate(62.307 65.271)" fill="#1b7ad7"/></svg>