<svg xmlns="http://www.w3.org/2000/svg" width="69.86" height="89.82" viewBox="0 0 69.86 89.82"><g transform="translate(820.86 -288.18)"><g transform="translate(-835.86 -669.183)"><path d="M17.682,957.366A2.994,2.994,0,0,0,15,960.36v17.963a2.994,2.994,0,1,0,5.988,0V963.354H62.9v12.973a2.994,2.994,0,0,0,2.994,2.994H78.872v61.874H20.988V988.3a2.994,2.994,0,1,0-5.988,0v55.886a2.994,2.994,0,0,0,2.994,2.994H81.866a3,3,0,0,0,2.994-2.994V976.328a2.994,2.994,0,0,0-.873-2.121L68.019,958.24a2.994,2.994,0,0,0-2.121-.873h-47.9a3,3,0,0,0-.312,0ZM68.892,967.6l5.739,5.738H68.892Zm-1.341,29.658a2.994,2.994,0,0,0-1.778.9l-21.831,21.83-9.855-9.855a2.994,2.994,0,1,0-4.242,4.21l11.976,11.976a2.995,2.995,0,0,0,4.241,0l23.952-23.951a2.994,2.994,0,0,0-2.464-5.115Z" transform="translate(0)" fill="#1b7ad7"/></g></g></svg>