<svg xmlns="http://www.w3.org/2000/svg" width="90.803" height="91.471" viewBox="0 0 90.803 91.471"><g transform="translate(-718.09 80.043)"><g transform="translate(710.815 -86.332)"><path d="M93.994,120.755c.185,0,.37.037.556.037a7.518,7.518,0,0,0,5.482-2.556c3.075-3.038,10.409-9.965,15.262-14.558l3.334-3.149a1.065,1.065,0,0,0,.185-1.334,1.076,1.076,0,0,0-1.259-.482c-2.149.667-6.149,1.963-10.409,3.3-6.186,2-12.632,4.038-14.817,4.667a7.049,7.049,0,0,0-5.112,7.668A7.219,7.219,0,0,0,93.994,120.755ZM92.734,108.05c2.223-.63,8.631-2.7,14.854-4.7,3.408-1.111,6.7-2.149,8.965-2.852l-2.223,2.111c-4.853,4.593-12.224,11.521-15.3,14.6a6.166,6.166,0,0,1-4.927,2.149A5.825,5.825,0,0,1,88.66,114.2,5.633,5.633,0,0,1,92.734,108.05Z" transform="translate(-49.663 -57.484)" fill="#1b7ad7" stroke="#1b7ad7" stroke-width="2"/><path d="M96.044,60.9c.074-.3.111-.593.185-.889a44.028,44.028,0,0,0-5.779-31.45h0c-.778-1.259-1.63-2.482-2.482-3.63a44.341,44.341,0,0,0-78.9,18.485,44.644,44.644,0,0,0,.185,17.6l.815,3.815,9.742-2.074L19.326,59.2a33.1,33.1,0,0,1,1.889-16.114,30.943,30.943,0,0,1,8.89-12.669,30.411,30.411,0,0,1,13.15-6.594,28.474,28.474,0,0,1,7.075-.667,29.028,29.028,0,0,1,6.89,1.074,26.544,26.544,0,0,1,15.077,11L74.262,38.9a21.807,21.807,0,0,1,.963,2.593A24.294,24.294,0,0,1,76.3,47.38a23.8,23.8,0,0,1-.407,5.816,21.383,21.383,0,0,1-.852,3.112l-1.482,4.26,21.67,4.075ZM92.71,59.345c-.037.259-.111.556-.148.815l-.074.3-14.114-2.7.111-.333a23.324,23.324,0,0,0,.963-3.593,27.111,27.111,0,0,0,.482-6.668,29.569,29.569,0,0,0-1.222-6.779,26.435,26.435,0,0,0-1.148-3L75.41,33.415a31.031,31.031,0,0,0-4.186-5.149,30.472,30.472,0,0,0-13-7.483,34.4,34.4,0,0,0-7.779-1.222A32.3,32.3,0,0,0,34.737,23.08a32.661,32.661,0,0,0-6.964,4.667,34.916,34.916,0,0,0-9.891,14.114A36.588,36.588,0,0,0,15.77,59.716l.037.3-3.038.63-.074-.3a40.369,40.369,0,0,1-.185-16.188A40.965,40.965,0,0,1,52.629,10.93a38.317,38.317,0,0,1,7.631.741A40.641,40.641,0,0,1,85.116,27.118c.778,1.037,1.556,2.149,2.3,3.334A40.724,40.724,0,0,1,92.71,59.345Z" transform="translate(0 0)" fill="#1b7ad7" stroke="#1b7ad7" stroke-width="2"/><path d="M206.464,73.2,200.5,77.164l.445,1.074a27.078,27.078,0,0,1,1.074,2.889,29.409,29.409,0,0,1,.815,14.6l-.37,1.667,9.15,1.741.185-1.482A38.619,38.619,0,0,0,207.2,74.534Zm3.89,24.226-6.223-1.185.037-.259a33.121,33.121,0,0,0,.556-7.631,31.131,31.131,0,0,0-1.408-7.705c-.3-1-.7-2-1.111-3l3.7-2.445A36.988,36.988,0,0,1,210.354,97.426Z" transform="translate(-121.015 -41.452)" fill="#1b7ad7" stroke="#1b7ad7" stroke-width="2"/><path d="M99.123,175.48a1.8,1.8,0,0,0-2.408.815,40.788,40.788,0,0,1-73.013,0,1.829,1.829,0,0,0-2.408-.815,1.8,1.8,0,0,0-.815,2.408,44.354,44.354,0,0,0,79.421,0A1.782,1.782,0,0,0,99.123,175.48Z" transform="translate(-7.562 -105.725)" fill="#1b7ad7" stroke="#1b7ad7" stroke-width="2"/></g></g></svg>