<svg xmlns="http://www.w3.org/2000/svg" width="158.104" height="88.725" viewBox="0 0 158.104 88.725"><g transform="translate(-2.6 -23.4)"><path d="M160.7,100.951v8.339a2.923,2.923,0,0,1-2.835,2.835H132.185a2.835,2.835,0,0,1,0-5.67h22.848v-5.5a2.524,2.524,0,0,0-1.167-2.335,103.421,103.421,0,0,0-16.844-10.84,3.322,3.322,0,0,1-1.835-3V72.932a2.662,2.662,0,0,1,1.334-2.335,2.851,2.851,0,0,0,1.167-2.168V56.088a8.185,8.185,0,0,0-8.172-8.172h-2.668a8.185,8.185,0,0,0-8.172,8.172V68.263a2.851,2.851,0,0,0,1.167,2.168,2.662,2.662,0,0,1,1.334,2.335v5.67a2.835,2.835,0,1,1-5.67,0V74.1a8.493,8.493,0,0,1-2.5-5.837V56.088a13.808,13.808,0,0,1,13.842-13.842h2.668a13.808,13.808,0,0,1,13.842,13.842V68.263a7.823,7.823,0,0,1-2.5,5.837v9.006a104.542,104.542,0,0,1,16.678,10.84A9.5,9.5,0,0,1,160.7,100.951ZM33.787,47.916h2.668a8.185,8.185,0,0,1,8.172,8.172V68.263a2.851,2.851,0,0,1-1.167,2.168,2.662,2.662,0,0,0-1.334,2.335V78.6a2.835,2.835,0,0,0,5.67,0V74.1a8.493,8.493,0,0,0,2.5-5.837V56.088A13.808,13.808,0,0,0,36.455,42.246H33.787A13.808,13.808,0,0,0,19.945,56.088V68.263a7.823,7.823,0,0,0,2.5,5.837v9.006A104.542,104.542,0,0,0,5.769,93.946,8.884,8.884,0,0,0,2.6,100.784v8.339a2.923,2.923,0,0,0,2.835,2.835H31.452a2.835,2.835,0,1,0,0-5.67H8.27v-5.5a2.524,2.524,0,0,1,1.167-2.335,103.422,103.422,0,0,1,16.844-10.84,3.322,3.322,0,0,0,1.835-3V72.766a2.662,2.662,0,0,0-1.334-2.335,2.851,2.851,0,0,1-1.167-2.168V56.088A8.185,8.185,0,0,1,33.787,47.916Zm85.389,42.361A130.394,130.394,0,0,0,97.328,76.1V63.593a9.95,9.95,0,0,0,3.169-7.338V40.411A17.083,17.083,0,0,0,83.486,23.4H80.151A17.083,17.083,0,0,0,63.139,40.411V56.255a9.95,9.95,0,0,0,3.169,7.338V76.1A130.393,130.393,0,0,0,44.461,90.277a10.358,10.358,0,0,0-3.836,8.172v10.84a2.835,2.835,0,0,0,5.67,0V98.449a4.779,4.779,0,0,1,1.668-3.669A110.967,110.967,0,0,1,69.977,80.771a3.737,3.737,0,0,0,2-3.169V62.425a2.662,2.662,0,0,0-1.334-2.335,4.351,4.351,0,0,1-1.835-3.5V40.745A11.352,11.352,0,0,1,80.151,29.4h3.336A11.352,11.352,0,0,1,94.827,40.745V56.588a3.929,3.929,0,0,1-1.835,3.5,2.662,2.662,0,0,0-1.334,2.335V77.6a3.537,3.537,0,0,0,2,3.169A126.224,126.224,0,0,1,115.674,94.78a4.5,4.5,0,0,1,1.668,3.669v10.84a2.835,2.835,0,1,0,5.67,0V98.449A10.358,10.358,0,0,0,119.176,90.277Z" transform="translate(0 0)" fill="#1b7ad7"/></g></svg>