<svg xmlns="http://www.w3.org/2000/svg" width="19.434" height="19.434" viewBox="0 0 19.434 19.434"><g transform="translate(0 0)"><g transform="translate(0)"><path d="M9.717,1.751c2.594,0,2.9.011,3.927.057a5.376,5.376,0,0,1,1.8.335,2.991,2.991,0,0,1,1.117.728,3,3,0,0,1,.727,1.117,5.382,5.382,0,0,1,.333,1.8c.048,1.024.057,1.331.057,3.927s-.009,2.9-.057,3.925a5.337,5.337,0,0,1-.333,1.805,3.212,3.212,0,0,1-1.845,1.843,5.373,5.373,0,0,1-1.8.335c-1.026.046-1.333.057-3.927.057s-2.9-.011-3.927-.057a5.372,5.372,0,0,1-1.8-.335,3.013,3.013,0,0,1-1.117-.725,3.018,3.018,0,0,1-.728-1.117,5.407,5.407,0,0,1-.335-1.805c-.046-1.024-.057-1.331-.057-3.925s.011-2.9.057-3.927a5.379,5.379,0,0,1,.335-1.8,3,3,0,0,1,.728-1.117,2.974,2.974,0,0,1,1.117-.728,5.374,5.374,0,0,1,1.8-.335c1.024-.046,1.333-.057,3.927-.057M9.717,0C7.077,0,6.746.013,5.709.059A7.106,7.106,0,0,0,3.35.512,4.761,4.761,0,0,0,1.63,1.631,4.766,4.766,0,0,0,.51,3.352,7.108,7.108,0,0,0,.057,5.711C.011,6.747,0,7.078,0,9.718s.011,2.969.057,4.005A7.164,7.164,0,0,0,.51,16.082,4.746,4.746,0,0,0,1.632,17.8a4.752,4.752,0,0,0,1.721,1.122,7.172,7.172,0,0,0,2.359.451c1.037.048,1.365.059,4.006.059s2.971-.011,4.007-.059a7.161,7.161,0,0,0,2.357-.451,4.963,4.963,0,0,0,2.842-2.842,7.154,7.154,0,0,0,.453-2.359c.046-1.037.057-1.368.057-4.005s-.011-2.971-.059-4.007a7.107,7.107,0,0,0-.451-2.359A4.767,4.767,0,0,0,17.8,1.631,4.766,4.766,0,0,0,16.081.512,7.11,7.11,0,0,0,13.722.059C12.685.013,12.354,0,9.717,0Z" fill="#fff"/><path d="M4.99,0A4.989,4.989,0,1,0,9.98,4.99,4.989,4.989,0,0,0,4.99,0Zm0,8.228A3.239,3.239,0,1,1,8.228,4.99,3.239,3.239,0,0,1,4.99,8.228Z" transform="translate(4.727 4.728)" fill="#fff"/><ellipse cx="1.166" cy="1.166" rx="1.166" ry="1.166" transform="translate(13.355 5.1) rotate(-65.184)" fill="#fff"/></g></g></svg>