<svg xmlns="http://www.w3.org/2000/svg" width="125.156" height="130.186" viewBox="0 0 125.156 130.186"><g transform="translate(0 -13.873)"><g transform="translate(2.748 13.873)"><g transform="translate(36.41 26.434)"><path d="M182.4,154.46a2.5,2.5,0,0,1-1.766-.732l-16.6-16.6a2.5,2.5,0,0,1,3.533-3.533L182.4,148.429l3.086-3.086-19.622-19.622-4.852,4.852a2.5,2.5,0,0,1-3.533-3.533l6.619-6.618a2.5,2.5,0,0,1,3.533,0l23.155,23.155a2.5,2.5,0,0,1,0,3.533l-6.618,6.618A2.5,2.5,0,0,1,182.4,154.46Z" transform="translate(-156.747 -119.69)" fill="#1b7ad7"/></g><g transform="translate(44.687 8.258)"><path d="M212.216,91.6a2.491,2.491,0,0,1-1.766-.732L190.614,71.032a2.5,2.5,0,0,1,0-3.533L210.45,47.663a2.5,2.5,0,0,1,3.533,0L231.5,65.181a2.5,2.5,0,0,1-3.533,3.533L212.216,52.962l-16.3,16.3,16.3,16.3,11.555-11.555a2.5,2.5,0,1,1,3.533,3.533L213.983,90.868A2.491,2.491,0,0,1,212.216,91.6Z" transform="translate(-189.882 -46.931)" fill="#1b7ad7"/></g><g transform="translate(62.863)"><path d="M288.3,48.623a2.5,2.5,0,0,1-1.766-.732L269.888,31.251a2.5,2.5,0,1,1,3.533-3.533L288.3,42.592l3.066-3.066L271.739,19.9l-4.832,4.833a2.5,2.5,0,0,1-3.533-3.533l6.6-6.6a2.5,2.5,0,0,1,3.533,0L296.66,37.759a2.5,2.5,0,0,1,0,3.533l-6.6,6.6A2.5,2.5,0,0,1,288.3,48.623Z" transform="translate(-262.642 -13.873)" fill="#1b7ad7"/></g><g transform="translate(71.122 34.712)"><path d="M306.458,172.7h0a2.5,2.5,0,0,1-1.766-.732l-8.258-8.259a2.5,2.5,0,0,1,0-3.533l6.618-6.619a2.5,2.5,0,0,1,3.533,0l8.259,8.259a2.5,2.5,0,0,1,0,3.533l-6.619,6.618A2.5,2.5,0,0,1,306.458,172.7Zm-4.725-10.757,4.725,4.726,3.086-3.086-4.725-4.726Z" transform="translate(-295.701 -152.827)" fill="#1b7ad7"/></g><g transform="translate(79.38 42.972)"><path d="M359.352,228.916h-.069a2.5,2.5,0,0,1-1.793-.832l-4.142-4.631a2.5,2.5,0,0,1,3.724-3.331l2.381,2.662,6.2-6.2-27.683-24.758-3.277,3.277,14.051,15.711a2.5,2.5,0,0,1-3.724,3.331L329.4,196.67a2.5,2.5,0,0,1,.1-3.432l6.619-6.618a2.5,2.5,0,0,1,3.432-.1l31.413,28.094a2.5,2.5,0,0,1,.1,3.629l-9.937,9.937A2.5,2.5,0,0,1,359.352,228.916Z" transform="translate(-328.759 -185.888)" fill="#1b7ad7"/></g><g transform="translate(0 115.977)"><path d="M130.91,483.123H100.933a2.5,2.5,0,0,1,0-5H130.91a2.5,2.5,0,0,1,0,5Zm-42.468,0H13.5a2.5,2.5,0,0,1,0-5H88.442a2.5,2.5,0,0,1,0,5Z" transform="translate(-11 -478.127)" fill="#1b7ad7"/></g><g transform="translate(7.494 95.992)"><path d="M113.446,423.108H43.5a2.5,2.5,0,0,1-2.5-2.5v-5a2.5,2.5,0,1,1,5,0v2.5h64.951v-2.5a2.5,2.5,0,1,1,5,0v5A2.5,2.5,0,0,1,113.446,423.108Zm0-17.487a2.5,2.5,0,0,1-2.5-2.5H46a2.5,2.5,0,0,1-5,0v-2.5a2.5,2.5,0,0,1,2.5-2.5h69.948a2.5,2.5,0,0,1,2.5,2.5v2.5A2.5,2.5,0,0,1,113.446,405.621Z" transform="translate(-41 -398.127)" fill="#1b7ad7"/></g><g transform="translate(14.989 83.501)"><path d="M128.457,365.614H73.5a2.5,2.5,0,0,1-2.5-2.5V350.625a2.5,2.5,0,0,1,2.5-2.5h7.494a2.5,2.5,0,0,1,0,5H76v7.494h49.963v-7.494H93.483a2.5,2.5,0,1,1,0-5h34.974a2.5,2.5,0,0,1,2.5,2.5v12.491A2.5,2.5,0,0,1,128.457,365.614Z" transform="translate(-71 -348.127)" fill="#1b7ad7"/></g><g transform="translate(12.491 41.033)"><path d="M68.494,193.116a7.494,7.494,0,1,1,7.494-7.494A7.5,7.5,0,0,1,68.494,193.116Zm0-9.993a2.5,2.5,0,1,0,2.5,2.5A2.5,2.5,0,0,0,68.494,183.123Z" transform="translate(-61 -178.127)" fill="#1b7ad7"/></g><g transform="translate(102.423 16.051)"><path d="M428.494,93.116a7.494,7.494,0,1,1,7.494-7.494A7.5,7.5,0,0,1,428.494,93.116Zm0-9.993a2.5,2.5,0,1,0,2.5,2.5A2.5,2.5,0,0,0,428.494,83.123Z" transform="translate(-421 -78.127)" fill="#1b7ad7"/></g><g transform="translate(7.494 105.984)"><path d="M88.464,443.123H43.5a2.5,2.5,0,0,1,0-5H88.464a2.5,2.5,0,0,1,0,5Z" transform="translate(-41 -438.127)" fill="#1b7ad7"/></g><g transform="translate(59.955 105.985)"><path d="M253.5,443.127a2.5,2.5,0,1,1,1.766-.732A2.516,2.516,0,0,1,253.5,443.127Z" transform="translate(-251 -438.131)" fill="#1b7ad7"/></g><g transform="translate(67.449 105.985)"><path d="M283.5,443.127a2.5,2.5,0,1,1,1.766-.732A2.516,2.516,0,0,1,283.5,443.127Z" transform="translate(-281 -438.131)" fill="#1b7ad7"/></g></g><text transform="translate(0 141.81)" fill="#1b7ad7" font-size="1" font-family="HelveticaNeue-Bold, Helvetica Neue" font-weight="700"><tspan x="0" y="0">Created by Flatart</tspan></text><text transform="translate(0 143.059)" fill="#1b7ad7" font-size="1" font-family="HelveticaNeue-Bold, Helvetica Neue" font-weight="700"><tspan x="0" y="0">from the Noun Project</tspan></text></g></svg>