<svg xmlns="http://www.w3.org/2000/svg" width="42.617" height="38.495" viewBox="0 0 42.617 38.495">
  <g id="noun_job_2043873" transform="translate(155.5 26.9)">
    <path id="Trazado_5063" data-name="Trazado 5063" d="M39.157,13.284H31.584V10.1a3,3,0,0,0-3-3h-9.59a3,3,0,0,0-3,3v3.182H8.415A5.91,5.91,0,0,0,2.5,19.2v20.48a5.91,5.91,0,0,0,5.915,5.915H39.2a5.91,5.91,0,0,0,5.915-5.915V19.2A5.977,5.977,0,0,0,39.157,13.284ZM18.274,10.1a.708.708,0,0,1,.717-.717h9.59a.708.708,0,0,1,.717.717v3.182H18.274ZM8.415,15.57H39.2a3.643,3.643,0,0,1,3.63,3.63v4.571a63.513,63.513,0,0,1-14.161,2.375V25.16A2.391,2.391,0,0,0,26.3,22.785H21.366a2.391,2.391,0,0,0-2.375,2.375v.986A63.513,63.513,0,0,1,4.83,23.771V19.2A3.549,3.549,0,0,1,8.415,15.57Zm17.925,9.59v4.347a.1.1,0,0,1-.09.09l-4.974-.09.09-4.481Zm12.817,18.1H8.415a3.643,3.643,0,0,1-3.63-3.63V26.146a66.835,66.835,0,0,0,14.161,2.285v1.076a2.391,2.391,0,0,0,2.375,2.375h4.84a2.391,2.391,0,0,0,2.375-2.375V28.431a67.235,67.235,0,0,0,14.251-2.285V39.679A3.605,3.605,0,0,1,39.157,43.264Z" transform="translate(-158 -34)" fill="#fff"/>
  </g>
</svg>
