<svg xmlns="http://www.w3.org/2000/svg" width="22.176" height="18.02" viewBox="0 0 22.176 18.02"><g transform="translate(0 0)"><path d="M6.973,18.02A12.857,12.857,0,0,0,19.92,5.075c0-.2,0-.394-.013-.588a9.263,9.263,0,0,0,2.268-2.356,9.106,9.106,0,0,1-2.612.716,4.569,4.569,0,0,0,2-2.516,9.18,9.18,0,0,1-2.888,1.1,4.555,4.555,0,0,0-7.756,4.148A12.925,12.925,0,0,1,1.541.832,4.553,4.553,0,0,0,2.95,6.9a4.485,4.485,0,0,1-2.064-.57v.058a4.552,4.552,0,0,0,3.65,4.459,4.508,4.508,0,0,1-2.055.077,4.552,4.552,0,0,0,4.252,3.16,9.121,9.121,0,0,1-5.65,1.952A9.188,9.188,0,0,1,0,15.978a12.893,12.893,0,0,0,6.973,2.039" transform="translate(0 0)" fill="#fff"/></g></svg>