<svg xmlns="http://www.w3.org/2000/svg" width="20.84" height="27.381" viewBox="0 0 20.84 27.381"><g transform="translate(-13.801 -2.475)"><path d="M13.8,6.339v19.6c0,2.562,5.239,3.915,10.42,3.915S34.64,28.5,34.64,25.941V6.339C34.64,1.187,13.8,1.187,13.8,6.339ZM24.22,4.065C30.005,4.065,33,5.648,33,6.339S30.005,8.584,24.22,8.584,15.441,7,15.441,6.31,18.434,4.065,24.22,4.065Zm0,24.121c-5.786,0-8.779-1.583-8.779-2.274V21.595c1.957,1.123,5.383,1.7,8.779,1.7s6.822-.576,8.779-1.7v4.346C33,26.6,30.005,28.186,24.22,28.186Zm0-6.534c-5.786,0-8.779-1.583-8.779-2.274V15.061c1.957,1.123,5.383,1.7,8.779,1.7s6.822-.576,8.779-1.7v4.346C33,20.069,30.005,21.652,24.22,21.652Zm0-6.534c-5.786,0-8.779-1.583-8.779-2.274V8.527c1.957,1.123,5.383,1.7,8.779,1.7s6.822-.576,8.779-1.7v4.346C33,13.535,30.005,15.118,24.22,15.118Z" transform="translate(0)" fill="#fff"/><circle cx="1.094" cy="1.094" r="1.094" transform="translate(28.537 11.117)" fill="#fff"/><circle cx="1.094" cy="1.094" r="1.094" transform="translate(28.537 17.651)" fill="#fff"/><circle cx="1.094" cy="1.094" r="1.094" transform="translate(28.537 24.185)" fill="#fff"/></g></svg>