<svg xmlns="http://www.w3.org/2000/svg" width="27.377" height="27.381" viewBox="0 0 27.377 27.381"><g transform="translate(-26 -25.998)"><path d="M27.141,53.378h5.7a1.141,1.141,0,0,0,1.141-1.141V49.956h2.282a1.141,1.141,0,0,0,1.141-1.141V46.534H39.69a1.141,1.141,0,0,0,.8-.337l1.05-1.044a9.7,9.7,0,1,0-7.073-6.423l-8.134,8.14a1.141,1.141,0,0,0-.337.8v4.563A1.141,1.141,0,0,0,27.141,53.378Zm1.141-5.231L36.6,39.826a1.141,1.141,0,0,0,.234-1.249,7.324,7.324,0,0,1-.57-2.852,7.415,7.415,0,1,1,5.265,7.1,1.141,1.141,0,0,0-1.141.285l-1.175,1.147H36.267a1.141,1.141,0,0,0-1.141,1.141v2.282H32.845A1.141,1.141,0,0,0,31.7,48.815V51.1H28.282Z" transform="translate(0 0)" fill="#fff"/><circle cx="1.711" cy="1.711" r="1.711" transform="translate(44.253 31.703)" fill="#fff"/></g></svg>