<svg xmlns="http://www.w3.org/2000/svg" width="24.609" height="24.599" viewBox="0 0 24.609 24.599"><g transform="translate(8.824 -60.934)"><g transform="translate(-49 10.434)"><path d="M25.338,27.1a1.951,1.951,0,0,1-.751-.155L20.7,25.157A12.172,12.172,0,1,1,25.157,20.7l1.787,3.884a1.746,1.746,0,0,1-.363,1.994A1.789,1.789,0,0,1,25.338,27.1Zm-.311-1.631ZM14.644,4.6a10.047,10.047,0,1,0,5.412,18.514,1.155,1.155,0,0,1,1.01-.078l3.6,1.657-1.657-3.6a1.009,1.009,0,0,1,.078-1.01A10.07,10.07,0,0,0,14.644,4.6Z" transform="translate(37.676 48)" fill="#fff"/></g></g></svg>