<svg xmlns="http://www.w3.org/2000/svg" width="70" height="70" viewBox="0 0 70 70">
  <g id="Grupo_1618" data-name="Grupo 1618" transform="translate(1825 4465.734) rotate(180)">
    <g id="noun_Arrow_1569918" transform="translate(1752 4414.734)">
      <g id="noun_Arrow_2332726">
        <g id="Grupo_1607" data-name="Grupo 1607">
          <path id="Trazado_5052" data-name="Trazado 5052" d="M74.332,999.873,60,984.64a.92.92,0,0,0-1.274-.042.942.942,0,0,0-.042,1.274l12.909,13.721H39.9a.9.9,0,1,0,0,1.792H71.588l-12.909,13.721a.936.936,0,0,0,.042,1.274.911.911,0,0,0,1.274-.042l14.337-15.233A.963.963,0,0,0,74.332,999.873Z" transform="translate(-19 -984.362)" fill="#1b7ad7"/>
        </g>
      </g>
    </g>
    <g id="Rectángulo_1400" data-name="Rectángulo 1400" transform="translate(1825 4465.734) rotate(180)" fill="none" stroke="#1b7ad7" stroke-width="2">
      <rect width="70" height="70" stroke="none"/>
      <rect x="1" y="1" width="68" height="68" fill="none"/>
    </g>
  </g>
</svg>
